<svg width="32" height="32" viewBox="0 0 32 32" fill="none" xmlns="http://www.w3.org/2000/svg">
  <rect width="32" height="32" rx="6" fill="#00A651"/>
  <path d="M8 24V8h6c1.5 0 2.75 0.5 3.75 1.5S19 11.5 19 13c0 1-0.25 1.875-0.75 2.625S17 16.75 16 17c1 0.25 1.75 0.75 2.25 1.5S19 20 19 21c0 1.5-0.5 2.75-1.5 3.75S15.5 26 14 26H8zm3-10h3c0.5 0 0.875-0.125 1.125-0.375S15.5 13.5 15.5 13s-0.125-0.875-0.375-1.125S14.5 11.5 14 11.5h-3V14zm0 7h3.5c0.5 0 0.875-0.125 1.125-0.375S16 20.5 16 20s-0.125-0.875-0.375-1.125S15 18.5 14.5 18.5H11V21z" fill="white"/>
</svg>